<svg xmlns="http://www.w3.org/2000/svg" viewBox="0 0 1308 128.3"><defs><style>.cls-1{fill:#a7b214;}.cls-2{fill:#8b5e3c;}.cls-3{fill:#c8ac00;}.cls-4{fill:#d1d120;}.cls-5{fill:#cece00;}.cls-6{fill:#bcc10c;}.cls-7{fill:#ede848;}</style></defs><title>Risorsa 6</title><g id="Livello_2" data-name="Livello 2"><g id="Livello_1-2" data-name="Livello 1"><path class="cls-1" d="M212.23,20.73s5.64-.5,5.2,11.75c-.35,10.06-3.17,11.45-5.16,11.38-3.26-.1-5.35-6.73-5.06-11.77S209.29,20.4,212.23,20.73Z"/><polygon class="cls-2" points="211.6 52.33 212.97 52.16 212.38 38.32 211.6 52.33"/><path class="cls-3" d="M200.82,28.59s4.32-.38,4,9c-.27,7.7-2.43,8.77-4,8.72-2.49-.08-4.09-5.16-3.87-9S198.57,28.34,200.82,28.59Z"/><polygon class="cls-2" points="200.32 53.18 201.41 53.04 200.94 42.06 200.32 53.18"/><path class="cls-4" d="M189.6,30.76s5-.45,4.63,10.44c-.32,8.93-2.83,10.17-4.59,10.11-2.9-.09-4.75-6-4.5-10.46S187,30.46,189.6,30.76Z"/><polygon class="cls-2" points="189.1 58.7 190.26 58.55 189.73 46.39 189.1 58.7"/><path class="cls-3" d="M619.16,80.53s31.14-22.61,42.72-23.15,10.52,7.44,17.19,8,17.54-19.11,39.64-22.06,36.83,19.5,45.6,22.45S787.13,54.9,797,53.29,834,66.51,848,77.71c10,8.07-8.05,4.9-3,2.82s-27.72,13.16-28.77,13.7-30.52.53-36.48,3.75-24.91,15-30.52,15-20-1.34-22.45-1.61-90.86-17.72-90.86-17.72Z"/><path class="cls-5" d="M327,41.55c118.24-2.3,192,1.77,357.68,34C883,114.23,569.7,128,569.7,128H0L77,87.49S146,45.08,327,41.55Z"/><path class="cls-6" d="M503.46,128s99.22,5.45,219.16-31.84C819.16,66.17,1082,28,1181,56.2,1253,76.69,1308,128,1308,128H503.46Z"/><path class="cls-1" d="M348,13s8.82-1.09,8.8,18.13c0,15.79-4.37,18.12-7.49,18.13-5.12,0-8.74-10.27-8.56-18.19S343.42,12.67,348,13Z"/><polyline class="cls-2" points="348.81 64.02 349.22 40.6 352.12 63.22 348.4 64.02"/><path class="cls-7" d="M1083.75,0s11.16-1,10.3,23.24c-.7,19.9-6.28,22.65-10.23,22.53-6.44-.21-10.57-13.32-10-23.3S1077.94-.63,1083.75,0Z"/><polygon class="cls-2" points="1082.42 64.03 1085.31 64.11 1084.04 34.83 1082.42 64.03"/><path class="cls-7" d="M593.09,36.89s7.18-.64,6.63,15c-.45,12.81-4,14.58-6.58,14.5-4.15-.13-6.81-8.57-6.44-15S589.35,36.47,593.09,36.89Z"/><polygon class="cls-2" points="592.23 78.09 594.09 78.15 593.28 59.29 592.23 78.09"/><path class="cls-7" d="M576.39,45s5.49-.48,5.07,11.45c-.35,9.79-3.1,11.15-5,11.08-3.17-.1-5.2-6.55-4.92-11.46S573.52,44.71,576.39,45Z"/><polygon class="cls-2" points="575.73 76.55 577.15 76.59 576.53 62.17 575.73 76.55"/><path class="cls-4" d="M1141.63,17.06s6.68-.44,5.85,14c-.69,11.86-4,13.43-6.4,13.31-3.84-.21-6.13-8.09-5.66-14S1138.17,16.59,1141.63,17.06Z"/><polygon class="cls-2" points="1140 55.23 1141.72 55.32 1141.35 37.83 1140 55.23"/><path class="cls-4" d="M873.77,39.46s5.82-.51,5.37,12.11c-.37,10.36-3.27,11.79-5.33,11.73-3.35-.11-5.5-6.94-5.2-12.13S870.75,39.12,873.77,39.46Z"/><polygon class="cls-2" points="873.12 72.02 874.54 71.84 873.93 57.59 873.12 72.02"/><path class="cls-1" d="M862,48.08s4.45-.4,4.11,9.27c-.28,7.93-2.51,9-4.08,9-2.57-.08-4.21-5.31-4-9.29S859.7,47.82,862,48.08Z"/><polygon class="cls-2" points="861.5 73.41 862.63 73.27 862.14 61.96 861.5 73.41"/><path class="cls-1" d="M850.46,46.18s5.17-.46,4.77,10.75c-.33,9.21-2.91,10.49-4.73,10.43-3-.1-4.9-6.16-4.63-10.78S847.77,45.87,850.46,46.18Z"/><polygon class="cls-2" points="849.94 74.97 851.14 74.81 850.6 62.29 849.94 74.97"/><path class="cls-1" d="M1019.63,81.46s-.14-38.31-17.3-39.82S983,83.93,983,83.93l19.09,2.2L1019.63,82"/><path class="cls-2" d="M1003.29,80s-.82-15.93-3.57-21.56c0,0,2.52,6.87,2.75,21.56Z"/><path class="cls-2" d="M999.72,79.3a11.17,11.17,0,0,0-4.7-3,11.34,11.34,0,0,1,4.22,3.19C1001.13,81.84,999.72,79.3,999.72,79.3Z"/><path class="cls-2" d="M1004.15,79.33s2.33-5.53,4.53-6.86c0,0-1.75,1-3.88,7.55s-1.51,1.78-1.51,1.78Z"/><path class="cls-2" d="M1001.92,68s0-2.85,1.24-4.13c0,0-1.07,1.63-1,5.37Z"/><path class="cls-1" d="M306.5,83.19s-.15-39.57-17.88-41.13-20,43.69-20,43.69L288.34,88l18.16-4.26"/><path class="cls-2" d="M289.62,73.69s-.86-16.46-3.69-22.27c0,0,2.6,7.09,2.83,22.27Z"/><path class="cls-2" d="M285.93,72.94a11.63,11.63,0,0,0-4.86-3,11.72,11.72,0,0,1,4.36,3.29C287.38,75.57,285.93,72.94,285.93,72.94Z"/><path class="cls-2" d="M290.5,73s2.41-5.71,4.68-7.09c0,0-1.81,1.06-4,7.8s-1.56,1.84-1.56,1.84Z"/><path class="cls-2" d="M288.2,61.28s0-3,1.28-4.28c0,0-1.11,1.69-1.07,5.55Z"/><path class="cls-1" d="M274.83,72.71s-.08-22.7-10.25-23.59-11.47,25.06-11.47,25.06l11.31,1.3L274.83,73"/><path class="cls-2" d="M265.15,66.89s-.49-9.44-2.11-12.78c0,0,1.49,4.07,1.62,12.78Z"/><path class="cls-2" d="M263,66.46a6.67,6.67,0,0,0-2.79-1.75,6.76,6.76,0,0,1,2.5,1.89C263.87,68,263,66.46,263,66.46Z"/><path class="cls-2" d="M265.66,66.48s1.38-3.27,2.68-4.07c0,0-1,.61-2.29,4.48s-.9,1.06-.9,1.06Z"/><path class="cls-2" d="M264.34,59.77a4.36,4.36,0,0,1,.73-2.45,6.09,6.09,0,0,0-.61,3.18Z"/></g></g></svg>