<?xml version="1.0" encoding="utf-8"?>
<!-- Generator: Adobe Illustrator 28.2.0, SVG Export Plug-In . SVG Version: 6.00 Build 0)  -->
<svg version="1.1" id="Livello_1" xmlns="http://www.w3.org/2000/svg" xmlns:xlink="http://www.w3.org/1999/xlink" x="0px" y="0px"
	 viewBox="0 0 177.21 39.33" style="enable-background:new 0 0 177.21 39.33;" xml:space="preserve">
<style type="text/css">
	.st0{fill:#F29106;}
	.st1{fill:#489935;}
	.st2{fill:#343434;}
	.st3{fill:#FFFFFF;}
</style>
<g>
	<g>
		<g>
			<path class="st0" d="M17.23,18.46H8.96L7.5,22.26H0.04L9.56,0.5h7.21l9.51,21.76h-7.58L17.23,18.46z M15.21,13.18L13.1,7.71
				l-2.11,5.47H15.21z"/>
		</g>
		<g>
			<path class="st0" d="M41.54,10.79h6.37v9.2c-2.64,1.8-6.28,2.77-9.48,2.77c-7.02,0-12.15-4.69-12.15-11.38S31.41,0,38.59,0
				c4.29,0,7.74,1.49,9.95,4.2l-4.69,4.13c-1.37-1.59-2.95-2.39-4.88-2.39c-3.23,0-5.28,2.08-5.28,5.44c0,3.26,2.05,5.44,5.19,5.44
				c0.9,0,1.77-0.16,2.67-0.53V10.79z"/>
		</g>
		<g>
			<path class="st0" d="M60.37,16.79h-1.99v5.47h-7.34V0.5h10.48c6.06,0,9.92,3.17,9.92,8.21c0,3.14-1.49,5.5-4.1,6.84l4.57,6.71
				h-7.83L60.37,16.79z M61.06,6.15h-2.67v5.1h2.67c2.02,0,2.98-0.96,2.98-2.55S63.08,6.15,61.06,6.15z"/>
		</g>
		<g>
			<path class="st0" d="M74.2,0.5h7.34v21.76H74.2V0.5z"/>
		</g>
		<g>
			<path class="st1" d="M103.17,16.72v5.53H85.08V0.5h17.69v5.53H92.29v2.55h9.2v5.28h-9.2v2.86H103.17z"/>
		</g>
		<g>
			<path class="st1" d="M105.81,12.46V0.5h7.34v11.75c0,3.33,1.27,4.57,3.33,4.57c2.05,0,3.33-1.24,3.33-4.57V0.5h7.21v11.97
				c0,6.53-3.92,10.29-10.6,10.29S105.81,18.99,105.81,12.46z"/>
		</g>
		<g>
			<path class="st1" d="M139.69,16.79h-1.99v5.47h-7.34V0.5h10.47c6.06,0,9.92,3.17,9.92,8.21c0,3.14-1.49,5.5-4.1,6.84l4.57,6.71
				h-7.83L139.69,16.79z M140.38,6.15h-2.67v5.1h2.67c2.02,0,2.98-0.96,2.98-2.55S142.4,6.15,140.38,6.15z"/>
		</g>
		<g>
			<path class="st1" d="M152.65,11.38c0-6.59,5.19-11.38,12.28-11.38c7.09,0,12.28,4.79,12.28,11.38s-5.19,11.38-12.28,11.38
				C157.84,22.75,152.65,17.97,152.65,11.38z M169.81,11.38c0-3.39-2.18-5.44-4.88-5.44c-2.7,0-4.88,2.05-4.88,5.44
				s2.18,5.44,4.88,5.44C167.63,16.82,169.81,14.76,169.81,11.38z"/>
		</g>
	</g>
	<g>
		<rect y="24.4" class="st2" width="177.21" height="14.68"/>
	</g>
	<g>
		<path class="st3" d="M46.72,30.63c0,1.91-1.43,3.09-3.72,3.09h-1.72v2.36H39.3v-8.56H43C45.29,27.52,46.72,28.71,46.72,30.63z
			 M44.71,30.63c0-0.94-0.61-1.49-1.82-1.49h-1.61v2.97h1.61C44.1,32.11,44.71,31.56,44.71,30.63z"/>
		<path class="st3" d="M53.57,36.08l-1.65-2.38h-0.1H50.1v2.38h-1.98v-8.56h3.7c2.29,0,3.72,1.19,3.72,3.1
			c0,1.28-0.65,2.22-1.76,2.7l1.92,2.75H53.57z M51.71,29.14H50.1v2.98h1.61c1.21,0,1.82-0.56,1.82-1.49
			C53.53,29.69,52.92,29.14,51.71,29.14z"/>
		<path class="st3" d="M56.56,31.8c0-2.54,1.98-4.42,4.68-4.42c2.69,0,4.68,1.87,4.68,4.42c0,2.55-1.99,4.42-4.68,4.42
			C58.54,36.23,56.56,34.34,56.56,31.8z M63.92,31.8c0-1.63-1.15-2.74-2.68-2.74c-1.53,0-2.68,1.11-2.68,2.74s1.15,2.74,2.68,2.74
			C62.77,34.54,63.92,33.43,63.92,31.8z"/>
		<path class="st3" d="M69.39,29.11v2.26h3.96v1.59h-3.96v3.12h-1.98v-8.56h6.46v1.59H69.39z"/>
		<path class="st3" d="M81.84,34.49v1.59h-6.62v-8.56h6.46v1.59h-4.5v1.86h3.97v1.54h-3.97v1.98H81.84z"/>
		<path class="st3" d="M82.74,35.24l0.67-1.49c0.72,0.53,1.8,0.89,2.82,0.89c1.17,0,1.65-0.39,1.65-0.92c0-1.6-4.97-0.5-4.97-3.68
			c0-1.45,1.17-2.66,3.61-2.66c1.08,0,2.18,0.26,2.97,0.76l-0.61,1.5c-0.79-0.45-1.61-0.67-2.37-0.67c-1.17,0-1.63,0.44-1.63,0.98
			c0,1.58,4.97,0.49,4.97,3.63c0,1.43-1.19,2.65-3.63,2.65C84.87,36.23,83.5,35.82,82.74,35.24z"/>
		<path class="st3" d="M90.54,35.24l0.67-1.49c0.72,0.53,1.8,0.89,2.82,0.89c1.17,0,1.65-0.39,1.65-0.92c0-1.6-4.97-0.5-4.97-3.68
			c0-1.45,1.17-2.66,3.61-2.66c1.08,0,2.18,0.26,2.97,0.76l-0.61,1.5c-0.79-0.45-1.61-0.67-2.37-0.67c-1.17,0-1.63,0.44-1.63,0.98
			c0,1.58,4.97,0.49,4.97,3.63c0,1.43-1.19,2.65-3.63,2.65C92.66,36.23,91.3,35.82,90.54,35.24z"/>
		<path class="st3" d="M99.01,27.52h1.98v8.56h-1.98V27.52z"/>
		<path class="st3" d="M102.47,31.8c0-2.54,1.98-4.42,4.68-4.42c2.69,0,4.68,1.87,4.68,4.42c0,2.55-1.99,4.42-4.68,4.42
			C104.45,36.23,102.47,34.34,102.47,31.8z M109.83,31.8c0-1.63-1.15-2.74-2.68-2.74s-2.68,1.11-2.68,2.74s1.15,2.74,2.68,2.74
			S109.83,33.43,109.83,31.8z"/>
		<path class="st3" d="M121.17,27.52v8.56h-1.63l-4.27-5.19v5.19h-1.96v-8.56h1.64l4.25,5.19v-5.19H121.17z"/>
		<path class="st3" d="M128.83,34.25h-3.97l-0.76,1.83h-2.03l3.81-8.56h1.96l3.83,8.56h-2.08L128.83,34.25z M128.21,32.74
			l-1.36-3.28l-1.36,3.28H128.21z"/>
		<path class="st3" d="M132.56,27.52h1.98v6.94h4.29v1.61h-6.27V27.52z"/>
	</g>
</g>
</svg>
