<?xml version="1.0" encoding="utf-8"?>
<!-- Generator: Adobe Illustrator 28.2.0, SVG Export Plug-In . SVG Version: 6.00 Build 0)  -->
<svg version="1.1" id="Livello_1" xmlns="http://www.w3.org/2000/svg" xmlns:xlink="http://www.w3.org/1999/xlink" x="0px" y="0px"
	 viewBox="0 0 118.8 32.46" style="enable-background:new 0 0 118.8 32.46;" xml:space="preserve">
<style type="text/css">
	.st0{fill:#B89A6E;}
	.st1{fill:#C2A07A;}
	.st2{fill:#D3B88C;}
	.st3{fill:#806845;}
	.st4{fill:#F39208;}
	.st5{fill:#499A35;}
	.st6{fill:#927354;}
	.st7{fill:#FFFFFF;}
</style>
<g>
	<g>
		<polygon class="st0" points="11.24,32.46 0,28.91 0,12.15 11.24,15.7 		"/>
		<polygon class="st1" points="0,12.15 28.24,9.27 40.36,12.15 11.24,15.7 		"/>
		<polygon class="st2" points="11.24,15.7 11.24,32.46 40.36,27.73 40.36,12.15 		"/>
		<polygon class="st3" points="4.12,13.45 4.12,30.21 6.11,30.84 6.11,14.08 		"/>
		<polygon class="st3" points="4.12,13.45 32.68,10.33 34.95,10.87 6.11,14.08 		"/>
		<g>
			<path class="st4" d="M16.6,19.07l-1.08,0.14l-0.19,0.54l-0.97,0.12l1.24-3.14l0.94-0.12l1.24,2.83l-0.99,0.13L16.6,19.07z
				 M16.34,18.38l-0.28-0.72l-0.28,0.79L16.34,18.38z"/>
			<path class="st4" d="M19.77,17.61l0.83-0.11v1.26c-0.34,0.29-0.82,0.48-1.24,0.54c-0.92,0.12-1.58-0.44-1.58-1.36
				c0-0.92,0.67-1.65,1.6-1.76c0.56-0.07,1.01,0.08,1.3,0.41l-0.61,0.64c-0.18-0.2-0.38-0.28-0.64-0.25
				c-0.42,0.05-0.69,0.37-0.69,0.83c0,0.45,0.27,0.71,0.68,0.66c0.12-0.01,0.23-0.05,0.35-0.12V17.61z"/>
			<path class="st4" d="M22.22,18.13l-0.26,0.03v0.75l-0.96,0.12v-2.99l1.36-0.17c0.79-0.1,1.29,0.27,1.29,0.96
				c0,0.43-0.19,0.78-0.53,1.01l0.6,0.85l-1.02,0.13L22.22,18.13z M22.31,16.66l-0.35,0.04v0.7l0.35-0.04
				c0.26-0.03,0.39-0.18,0.39-0.4S22.58,16.62,22.31,16.66z"/>
			<path class="st4" d="M24.03,15.66l0.96-0.12v2.99l-0.96,0.12V15.66z"/>
			<path class="st5" d="M27.8,17.41v0.76l-2.36,0.3v-2.99l2.3-0.29v0.76l-1.36,0.17v0.35l1.2-0.15v0.73l-1.2,0.15v0.39L27.8,17.41z"
				/>
			<path class="st5" d="M28.14,16.78v-1.64l0.96-0.12v1.61c0,0.46,0.17,0.61,0.43,0.57c0.27-0.03,0.43-0.23,0.43-0.68v-1.61
				l0.94-0.12v1.64c0,0.9-0.51,1.48-1.38,1.59C28.65,18.13,28.14,17.68,28.14,16.78z"/>
			<path class="st5" d="M32.56,16.82l-0.26,0.03v0.75l-0.96,0.12v-2.99l1.36-0.17c0.79-0.1,1.29,0.27,1.29,0.96
				c0,0.43-0.19,0.78-0.53,1.01l0.6,0.85l-1.02,0.13L32.56,16.82z M32.65,15.35l-0.35,0.04v0.7l0.35-0.04
				c0.26-0.03,0.39-0.18,0.39-0.4C33.04,15.43,32.91,15.31,32.65,15.35z"/>
			<path class="st5" d="M34.25,15.86c0-0.9,0.68-1.65,1.6-1.76c0.92-0.12,1.6,0.45,1.6,1.36c0,0.9-0.68,1.65-1.6,1.76
				C34.92,17.34,34.25,16.77,34.25,15.86z M36.48,15.58c0-0.47-0.28-0.71-0.64-0.67c-0.35,0.04-0.64,0.36-0.64,0.83
				c0,0.47,0.28,0.71,0.64,0.67C36.2,16.36,36.48,16.04,36.48,15.58z"/>
		</g>
	</g>
	<g>
		<g>
			<polygon class="st0" points="62.67,32.46 39.19,29 39.19,2.45 62.67,5.57 			"/>
			<polygon class="st2" points="62.67,32.46 86.15,29 86.15,2.8 62.67,5.57 			"/>
			<polygon class="st1" points="39.19,2.45 62.67,0 86.15,2.8 62.67,5.57 			"/>
		</g>
		<g>
			<polygon class="st3" points="48.22,3.65 72.07,1.12 75.44,1.52 51.32,4.07 			"/>
		</g>
		<g>
			<polygon class="st3" points="51.32,30.78 48.22,30.33 48.22,3.65 51.32,4.07 			"/>
		</g>
		<path class="st1" d="M70.9,0.98"/>
		<path class="st6" d="M48.22,3.65"/>
		<g>
			<path class="st4" d="M67.06,9.22l-0.88,0.11l-0.16,0.45l-0.8,0.1l1.02-2.58l0.77-0.1l1.02,2.32l-0.81,0.1L67.06,9.22z
				 M66.84,8.65l-0.23-0.59l-0.23,0.64L66.84,8.65z"/>
			<path class="st4" d="M69.66,8.03l0.68-0.09v1.03c-0.28,0.24-0.67,0.4-1.01,0.44c-0.75,0.09-1.3-0.36-1.3-1.12
				c0-0.75,0.55-1.35,1.31-1.45c0.46-0.06,0.83,0.06,1.06,0.34l-0.5,0.53c-0.15-0.16-0.32-0.23-0.52-0.2
				c-0.35,0.04-0.56,0.31-0.56,0.68c0,0.37,0.22,0.58,0.55,0.54c0.1-0.01,0.19-0.04,0.29-0.1V8.03z"/>
			<path class="st4" d="M71.67,8.45l-0.21,0.03v0.62l-0.78,0.1V6.74l1.12-0.14c0.65-0.08,1.06,0.22,1.06,0.79
				c0,0.35-0.16,0.64-0.44,0.82l0.49,0.69l-0.84,0.11L71.67,8.45z M71.74,7.24l-0.29,0.04v0.57l0.29-0.04
				c0.22-0.03,0.32-0.15,0.32-0.33S71.96,7.22,71.74,7.24z"/>
			<path class="st4" d="M73.14,6.43l0.78-0.1v2.45l-0.78,0.1V6.43z"/>
			<path class="st5" d="M76.24,7.86v0.62l-1.93,0.24V6.28l1.89-0.24v0.62l-1.12,0.14v0.29l0.98-0.12v0.59l-0.98,0.12v0.32
				L76.24,7.86z"/>
			<path class="st5" d="M76.52,7.35V6l0.78-0.1v1.32c0,0.37,0.14,0.5,0.36,0.47c0.22-0.03,0.36-0.18,0.36-0.56V5.81l0.77-0.1v1.35
				c0,0.73-0.42,1.21-1.13,1.3C76.94,8.45,76.52,8.08,76.52,7.35z"/>
			<path class="st5" d="M80.14,7.38L79.92,7.4v0.62l-0.78,0.1V5.67l1.12-0.14c0.65-0.08,1.06,0.22,1.06,0.79
				c0,0.35-0.16,0.64-0.44,0.82l0.49,0.69l-0.84,0.11L80.14,7.38z M80.21,6.17l-0.29,0.04v0.57l0.29-0.04
				c0.22-0.03,0.32-0.15,0.32-0.33S80.42,6.14,80.21,6.17z"/>
			<path class="st5" d="M81.52,6.59c0-0.74,0.55-1.35,1.31-1.45c0.76-0.1,1.31,0.37,1.31,1.11c0,0.74-0.55,1.35-1.31,1.45
				C82.07,7.8,81.52,7.33,81.52,6.59z M83.35,6.36c0-0.38-0.23-0.58-0.52-0.55c-0.29,0.04-0.52,0.3-0.52,0.68
				c0,0.38,0.23,0.58,0.52,0.55C83.12,7,83.35,6.74,83.35,6.36z"/>
		</g>
	</g>
	<g>
		<g>
			<g>
				<polygon class="st5" points="88.17,31.74 76.59,22.24 88.17,12.74 118.08,12.74 118.08,31.74 				"/>
			</g>
			<g>
				<path class="st7" d="M117.35,13.46v17.54H88.43l-10.7-8.77l10.7-8.77H117.35 M118.8,12.01h-1.45H88.43h-0.52l-0.4,0.33
					l-10.7,8.77l-1.37,1.12l1.37,1.12l10.7,8.77l0.4,0.33h0.52h28.92h1.45v-1.45V13.46V12.01L118.8,12.01z"/>
			</g>
		</g>
		<g>
			<path class="st7" d="M88.6,22.01h4.03v2.02H88.6V22.01z"/>
			<path class="st7" d="M101.36,23.84c0,1.73-1.3,3.3-4.21,3.3c-1.34,0-2.76-0.33-3.74-0.95l0.98-2.06c0.79,0.52,1.75,0.8,2.68,0.8
				c0.92,0,1.55-0.37,1.55-1.02c0-0.59-0.4-0.98-1.88-0.98h-2.62l0.48-5.65h6.16v2.11h-3.89l-0.12,1.41h0.65
				C100.24,20.8,101.36,22.13,101.36,23.84z"/>
			<path class="st7" d="M101.84,19.84c0-1.67,1.05-2.68,2.47-2.68c1.44,0,2.48,1.01,2.48,2.68c0,1.68-1.05,2.68-2.48,2.68
				C102.89,22.52,101.84,21.52,101.84,19.84z M110.02,17.28h1.99l-6.6,9.66h-1.99L110.02,17.28z M105.12,19.84
				c0-0.98-0.35-1.37-0.81-1.37c-0.44,0-0.81,0.39-0.81,1.37c0,0.98,0.37,1.37,0.81,1.37C104.78,21.2,105.12,20.82,105.12,19.84z
				 M108.66,24.39c0-1.67,1.04-2.68,2.47-2.68c1.44,0,2.48,1.01,2.48,2.68c0,1.68-1.05,2.68-2.48,2.68
				C109.69,27.07,108.66,26.08,108.66,24.39z M111.94,24.39c0-0.98-0.36-1.37-0.81-1.37c-0.46,0-0.81,0.39-0.81,1.37
				c0,0.98,0.36,1.37,0.81,1.37C111.58,25.76,111.94,25.37,111.94,24.39z"/>
		</g>
	</g>
	<g>
		<path class="st3" d="M15.19,24.13v6.41l-1.48,0.25v-5.22l-1.28,0.22V24.6L15.19,24.13z"/>
	</g>
	<g>
		<path class="st3" d="M69.41,28.62v1.21l-4.84,0.78v-0.96l2.47-2.73c0.57-0.63,0.67-0.98,0.67-1.29c0-0.5-0.35-0.74-1.02-0.63
			c-0.55,0.09-1.02,0.37-1.33,0.85l-1.08-0.52c0.49-0.8,1.39-1.41,2.54-1.6c1.43-0.23,2.38,0.35,2.38,1.51
			c0,0.62-0.17,1.22-1.07,2.19l-1.47,1.63L69.41,28.62z"/>
	</g>
</g>
</svg>
